<?xml version="1.0" encoding="UTF-8" standalone="yes"?>
<!DOCTYPE svg PUBLIC "-//W3C//DTD SVG 1.1//EN" "http://www.w3.org/Graphics/SVG/1.1/DTD/svg11.dtd">

<svg width="371" height="238" viewBox="0 0 371 238" xmlns="http://www.w3.org/2000/svg" xmlns:xlink="http://www.w3.org/1999/xlink" version="1.1" baseProfile="full">
    <defs>
        <linearGradient id="6628144" x1="0%" x2="0%" y1="0%" y2="100%">
            <stop offset="0%" style="stop-color:#ffff00;stop-opacity:1.000000"></stop>
            <stop offset="100%" style="stop-color:#ff007f;stop-opacity:1.000000"></stop>
        </linearGradient>
    </defs>
    <g transform="scale(1,-1) translate(0,-238)">
        <path d="M 203.125650 103.125656 C 203.125650 157.871244 158.745582 202.251312 103.999994 202.251312 C 49.254405 202.251312 4.874337 157.871244 4.874337 103.125656 C 4.874337 48.380068 49.254405 4.000000 103.999994 4.000000 C 158.745582 4.000000 203.125650 48.380068 203.125650 103.125656 Z" transform="scale(0.500000,0.500000) translate(266.000000,0.000000)" fill="#faa612" opacity="1.000000"></path>
        <path d="M 20.000000 102.125656 L 86.000000 102.125656 C 94.836556 102.125656 102.000000 94.962212 102.000000 86.125656 L 102.000000 20.125656 C 102.000000 11.289100 94.836556 4.125656 86.000000 4.125656 L 20.000000 4.125656 C 11.163444 4.125656 4.000000 11.289100 4.000000 20.125656 L 4.000000 86.125656 C 4.000000 94.962212 11.163444 102.125656 20.000000 102.125656 Z" transform="scale(0.500000,0.500000) translate(635.000000,50.000000)" fill="#0076b5" opacity="1.000000"></path>
        <path d="M 20.659973 102.125656 L 86.659973 102.125656 C 95.496529 102.125656 102.659973 94.962212 102.659973 86.125656 L 102.659973 20.125656 C 102.659973 11.289100 95.496529 4.125656 86.659973 4.125656 L 20.659973 4.125656 C 11.823417 4.125656 4.659973 11.289100 4.659973 20.125656 L 4.659973 86.125656 C 4.659973 94.962212 11.823417 102.125656 20.659973 102.125656 Z" transform="scale(0.500000,0.500000) translate(543.000000,268.000000)" fill="#bd081c" opacity="1.000000"></path>
        <path d="M 21.000000 102.125656 L 87.000000 102.125656 C 95.836556 102.125656 103.000000 94.962212 103.000000 86.125656 L 103.000000 20.125656 C 103.000000 11.289100 95.836556 4.125656 87.000000 4.125656 L 21.000000 4.125656 C 12.163444 4.125656 5.000000 11.289100 5.000000 20.125656 L 5.000000 86.125656 C 5.000000 94.962212 12.163444 102.125656 21.000000 102.125656 Z" transform="scale(0.500000,0.500000) translate(316.000000,367.000000)" fill="url(#6628144)" opacity="1.000000"></path>
        <path d="M 201.080784 103.125656 C 201.080784 152.301306 159.452092 192.251312 108.000000 192.251312 C 56.547908 192.251312 14.919216 152.301306 14.919216 103.125656 C 14.919216 53.950007 56.547908 14.000000 108.000000 14.000000 C 159.452092 14.000000 201.080784 53.950007 201.080784 103.125656 Z M 211.080784 103.125656 C 211.080784 48.332977 164.884951 4.000000 108.000000 4.000000 C 51.115049 4.000000 4.919216 48.332977 4.919216 103.125656 C 4.919216 157.918335 51.115049 202.251312 108.000000 202.251312 C 164.884951 202.251312 211.080784 157.918335 211.080784 103.125656 Z" transform="scale(0.500000,0.500000) translate(262.000000,0.000000)" opacity="1.000000"></path>
        <path d="M 25.000000 104.125656 L 83.000000 104.125656 C 94.597980 104.125656 104.000000 94.723636 104.000000 83.125656 L 104.000000 25.125656 C 104.000000 13.527676 94.597980 4.125656 83.000000 4.125656 L 25.000000 4.125656 C 13.402020 4.125656 4.000000 13.527676 4.000000 25.125656 L 4.000000 83.125656 C 4.000000 94.723636 13.402020 104.125656 25.000000 104.125656 Z M 25.000000 94.125656 C 18.924868 94.125656 14.000000 89.200788 14.000000 83.125656 L 14.000000 25.125656 C 14.000000 19.050524 18.924868 14.125656 25.000000 14.125656 L 83.000000 14.125656 C 89.075132 14.125656 94.000000 19.050524 94.000000 25.125656 L 94.000000 83.125656 C 94.000000 89.200788 89.075132 94.125656 83.000000 94.125656 L 25.000000 94.125656 Z" transform="scale(0.500000,0.500000) translate(316.000000,367.000000)" fill="#000000" opacity="1.000000"></path>
        <path d="M 25.659973 104.125656 L 83.659973 104.125656 C 95.257953 104.125656 104.659973 94.723636 104.659973 83.125656 L 104.659973 25.125656 C 104.659973 13.527676 95.257953 4.125656 83.659973 4.125656 L 25.659973 4.125656 C 14.061993 4.125656 4.659973 13.527676 4.659973 25.125656 L 4.659973 83.125656 C 4.659973 94.723636 14.061993 104.125656 25.659973 104.125656 Z M 25.659973 94.125656 C 19.584841 94.125656 14.659973 89.200788 14.659973 83.125656 L 14.659973 25.125656 C 14.659973 19.050524 19.584841 14.125656 25.659973 14.125656 L 83.659973 14.125656 C 89.735105 14.125656 94.659973 19.050524 94.659973 25.125656 L 94.659973 83.125656 C 94.659973 89.200788 89.735105 94.125656 83.659973 94.125656 L 25.659973 94.125656 Z" transform="scale(0.500000,0.500000) translate(542.000000,267.000000)" opacity="1.000000"></path>
        <path d="M 25.000000 104.125656 L 83.000000 104.125656 C 94.597980 104.125656 104.000000 94.723636 104.000000 83.125656 L 104.000000 25.125656 C 104.000000 13.527676 94.597980 4.125656 83.000000 4.125656 L 25.000000 4.125656 C 13.402020 4.125656 4.000000 13.527676 4.000000 25.125656 L 4.000000 83.125656 C 4.000000 94.723636 13.402020 104.125656 25.000000 104.125656 Z M 25.000000 94.125656 C 18.924868 94.125656 14.000000 89.200788 14.000000 83.125656 L 14.000000 25.125656 C 14.000000 19.050524 18.924868 14.125656 25.000000 14.125656 L 83.000000 14.125656 C 89.075132 14.125656 94.000000 19.050524 94.000000 25.125656 L 94.000000 83.125656 C 94.000000 89.200788 89.075132 94.125656 83.000000 94.125656 L 25.000000 94.125656 Z" transform="scale(0.500000,0.500000) translate(0.000000,49.000000)" opacity="1.000000"></path>
        <path d="M 25.000000 104.125656 L 83.000000 104.125656 C 94.597980 104.125656 104.000000 94.723636 104.000000 83.125656 L 104.000000 25.125656 C 104.000000 13.527676 94.597980 4.125656 83.000000 4.125656 L 25.000000 4.125656 C 13.402020 4.125656 4.000000 13.527676 4.000000 25.125656 L 4.000000 83.125656 C 4.000000 94.723636 13.402020 104.125656 25.000000 104.125656 Z M 25.000000 94.125656 C 18.924868 94.125656 14.000000 89.200788 14.000000 83.125656 L 14.000000 25.125656 C 14.000000 19.050524 18.924868 14.125656 25.000000 14.125656 L 83.000000 14.125656 C 89.075132 14.125656 94.000000 19.050524 94.000000 25.125656 L 94.000000 83.125656 C 94.000000 89.200788 89.075132 94.125656 83.000000 94.125656 L 25.000000 94.125656 Z" transform="scale(0.500000,0.500000) translate(634.000000,49.000000)" opacity="1.000000"></path>
        <path d="M 25.333328 104.792343 L 83.333328 104.792343 C 94.931308 104.792343 104.333328 95.390323 104.333328 83.792343 L 104.333328 25.792343 C 104.333328 14.194363 94.931308 4.792343 83.333328 4.792343 L 25.333328 4.792343 C 13.735349 4.792343 4.333328 14.194363 4.333328 25.792343 L 4.333328 83.792343 C 4.333328 95.390323 13.735349 104.792343 25.333328 104.792343 Z M 25.333328 94.792343 C 19.258196 94.792343 14.333328 89.867475 14.333328 83.792343 L 14.333328 25.792343 C 14.333328 19.717211 19.258196 14.792343 25.333328 14.792343 L 83.333328 14.792343 C 89.408460 14.792343 94.333328 19.717211 94.333328 25.792343 L 94.333328 83.792343 C 94.333328 89.867475 89.408460 94.792343 83.333328 94.792343 L 25.333328 94.792343 Z" transform="scale(0.500000,0.500000) translate(89.000000,277.000000)" opacity="1.000000"></path>
        <path d="M 131.382809 38.125656 L 110.999991 4.675168 C 130.816154 18.132838 147.801437 29.667985 167.617601 43.125656 L 167.617601 43.125656 C 147.801437 56.583327 130.816154 68.118474 110.999991 81.576144 L 131.382809 48.125656 L 4.000000 48.125656 L 4.000000 38.125656 Z" transform="scale(0.500000,0.500000) translate(100.000000,60.000000)" opacity="1.000000"></path>
        <path d="M 89.258039 27.482983 L 50.898802 19.548032 C 74.259697 14.251067 94.283322 9.710811 117.644217 4.413845 L 117.644217 4.413845 C 113.954160 28.081814 110.791255 48.368645 107.101198 72.036613 L 96.566450 34.308460 L 11.987539 124.871728 L 4.679128 118.046251 Z" transform="scale(0.500000,0.500000) translate(177.000000,167.000000)" opacity="1.000000"></path>
        <path d="M 38.000000 41.076212 L 4.549511 61.459030 C 18.007182 41.642867 29.542329 24.657583 43.000000 4.841419 L 43.000000 4.841419 C 56.457671 24.657583 67.992818 41.642867 81.450489 61.459030 L 48.000000 41.076212 L 48.000000 172.125656 L 38.000000 172.125656 Z" transform="scale(0.500000,0.500000) translate(327.000000,199.000000)" opacity="1.000000"></path>
        <path d="M 27.747499 33.433484 L 19.601163 71.748386 C 14.433086 48.358639 10.003305 28.310284 4.835228 4.920537 L 4.835228 4.920537 C 28.482491 8.741040 48.751574 12.015757 72.398837 15.836260 L 34.613169 26.162819 L 117.825396 104.739905 L 110.959726 112.010571 Z" transform="scale(0.500000,0.500000) translate(438.000000,169.000000)" opacity="1.000000"></path>
        <path d="M 40.887290 48.354957 L 61.270108 81.805445 C 41.453945 68.347775 24.468662 56.812628 4.652499 43.354958 L 4.652499 43.354958 C 24.468662 29.897287 41.453945 18.362141 61.270108 4.904470 L 40.887290 38.354958 L 171.000000 38.354958 L 171.000000 48.354957 Z" transform="scale(0.500000,0.500000) translate(468.000000,60.000000)" opacity="1.000000"></path>
        <path d="M 60.309173 28.772299 Q 59.239198 17.440283 51.943908 11.093381 Q 44.648619 4.746479 32.538438 4.746479 Q 24.075903 4.746479 17.631730 8.758889 Q 11.187558 12.771298 7.685819 20.163858 Q 4.184080 27.556418 4.038174 37.332106 L 4.038174 43.946501 Q 4.038174 53.965366 7.588548 61.601102 Q 11.138923 69.236838 17.777636 73.370835 Q 24.416349 77.504833 33.122061 77.504833 Q 44.843160 77.504833 51.992543 71.133613 Q 59.141927 64.762394 60.309173 53.138566 L 48.053087 53.138566 Q 47.177652 60.774302 43.602961 64.154453 Q 40.028269 67.534604 33.122061 67.534604 Q 25.097243 67.534604 20.793022 61.674055 Q 16.488802 55.813506 16.391531 44.481489 L 16.391531 38.207540 Q 16.391531 26.729618 20.501211 20.698846 Q 24.610890 14.668073 32.538438 14.668073 Q 39.785092 14.668073 43.432737 17.926636 Q 47.080382 21.185198 48.053087 28.772299 Z M 87.253109 76.532128 L 107.679920 22.255174 L 128.058095 76.532128 L 143.961826 76.532128 L 143.961826 5.719185 L 131.705740 5.719185 L 131.705740 29.064111 L 132.921621 60.287950 L 112.008458 5.719185 L 103.205475 5.719185 L 82.340948 60.239314 L 83.556829 29.064111 L 83.556829 5.719185 L 71.300743 5.719185 L 71.300743 76.532128 Z" transform="scale(0.500000,0.500000) translate(296.000000,62.000000)" fill="#7f0000" opacity="1.000000"></path>
        <path d="M 30.415345 73.325661 Q 31.427996 73.256617 33.177122 73.118528 L 33.177122 62.439657 Q 32.072411 62.577746 29.471738 62.646790 Q 26.871064 62.715834 25.881428 61.496050 Q 24.891791 60.276265 24.891791 58.803317 Q 24.891791 57.330369 24.891791 54.568592 L 33.499329 54.568592 L 33.499329 45.316639 L 24.891791 45.316639 L 24.891791 4.856607 L 11.819380 4.856607 L 11.819380 45.316639 L 4.500671 45.316639 L 4.500671 54.568592 L 11.681291 54.568592 L 11.681291 57.790665 Q 11.681291 65.845848 14.397038 68.883803 Q 17.250875 73.394705 28.159894 73.394705 Q 29.402693 73.394705 30.415345 73.325661 Z" transform="scale(0.500000,0.500000) translate(35.000000,64.000000)" fill="#4267b2" opacity="1.000000"></path>
        <path d="M 34.315220 42.163996 L 15.346570 42.163996 L 15.346570 16.061119 Q 15.346570 15.473594 15.934094 15.473594 L 34.315220 15.473594 L 34.315220 4.478491 L 15.934094 4.478491 Q 11.066033 4.478491 7.708750 7.877741 Q 4.351467 11.276990 4.351467 16.061119 L 4.351467 69.106195 L 15.346570 69.106195 L 15.346570 53.159099 L 34.315220 53.159099 Z" transform="scale(0.500000,0.500000) translate(124.000000,295.000000)" fill="#1da0f2" opacity="1.000000"></path>
        <path d="M 21.497247 58.657141 L 23.403839 58.720694 Q 34.271414 58.657141 40.308956 54.589745 Q 46.346497 50.522348 46.346497 43.023086 Q 46.346497 35.523824 41.516464 31.297545 Q 36.686431 27.071265 28.742297 27.071265 Q 25.119772 27.071265 21.751459 28.405880 L 21.751459 19.000025 Q 21.751459 11.564316 19.908420 7.973568 Q 18.065381 4.382819 13.616666 4.382819 Q 11.201650 4.382819 9.867035 6.416518 Q 8.532421 8.450216 8.532421 12.199847 Q 8.532421 19.127132 15.777471 26.181522 L 15.777471 53.636449 Q 12.981136 52.365387 11.265203 50.617678 Q 9.549270 48.869968 9.549270 47.281142 Q 9.549270 45.692315 9.930588 44.548360 Q 9.549270 43.785723 8.214655 43.785723 Q 6.880041 43.785723 5.926745 44.739019 Q 4.973449 45.692315 4.973449 47.281142 Q 4.973449 50.268136 7.960443 53.191577 Q 10.947437 56.115018 15.777471 57.576739 L 15.777471 59.991756 Q 15.777471 61.898348 16.730767 62.883420 Q 17.684063 63.868493 19.082230 63.868493 Q 20.480398 63.868493 21.497247 62.978750 Z M 37.258408 33.585455 Q 40.245403 36.794885 40.245403 42.800650 Q 40.245403 48.806415 35.892017 52.206505 Q 31.538632 55.606594 23.467392 55.606594 Q 22.450543 55.606594 21.687906 55.415935 L 21.687906 31.774193 Q 24.929113 30.376025 28.233872 30.376025 Q 34.271414 30.376025 37.258408 33.585455 Z M 13.553113 6.861389 Q 14.887728 6.861389 15.332599 9.975490 Q 15.777471 13.089590 15.777471 23.194528 Q 11.265203 17.665411 11.265203 12.263400 Q 11.265203 6.861389 13.553113 6.861389 Z" transform="scale(0.500000,0.500000) translate(571.000000,287.000000)" fill="#ffffff" opacity="1.000000"></path>
        <path d="M 15.367569 49.899924 L 4.632431 49.899924 L 4.632431 59.669270 L 15.367569 59.669270 Z M 4.632431 45.070969 L 15.367569 45.070969 L 15.367569 4.582042 L 4.632431 4.582042 Z" transform="scale(0.500000,0.500000) translate(360.000000,389.000000)" fill="#ffffff" opacity="1.000000"></path>
        <path d="M 14.891420 49.899924 L 4.156283 49.899924 L 4.156283 59.669270 L 14.891420 59.669270 Z M 4.156283 45.070969 L 14.891420 45.070969 L 14.891420 4.582042 L 4.156283 4.582042 Z M 57.850543 42.749356 Q 61.843717 39.461953 61.843717 31.847063 L 61.843717 4.582042 L 50.997142 4.582042 L 50.997142 29.209710 Q 50.997142 32.404250 50.142789 34.112957 Q 48.582665 37.233204 44.199460 37.233204 Q 38.813318 37.233204 36.807445 32.664270 Q 35.767362 30.249793 35.767362 26.498067 L 35.767362 4.582042 L 25.217954 4.582042 L 25.217954 44.996677 L 35.433050 44.996677 L 35.433050 39.090494 Q 37.476069 42.210742 39.296214 43.585137 Q 42.565045 46.036760 47.579728 46.036760 Q 53.857369 46.036760 57.850543 42.749356 Z" transform="scale(0.500000,0.500000) translate(655.000000,71.000000)" fill="#ffffff" opacity="1.000000"></path>
    </g>
</svg>